# xmcd CD database file
#
# Track frame offsets:
#	183
#	32983
#	66158
#	106258
#	132908
#	163033
#	192208
#	224358
#	251308
#	273483
#
# Disc length: 3984 seconds
#
# Revision: 0
# Processed by: cddbd v1.5.1PL2 Copyright (c) Steve Scherf et al.
# Submitted via: CDex 1.51
#
DISCID=900f8e0a
DTITLE=Phil Woods/Franco D'Andrea - Our Monk
DYEAR=1994
DGENRE=Jazz
TTITLE0=Ask Me Now
TTITLE1=WellYou Needn't
TTITLE2='Round Midnight
TTITLE3=Straight No Chaser
TTITLE4=Pannonica
TTITLE5=I Mean You
TTITLE6=Misterioso
TTITLE7=In Walked Bud
TTITLE8=Epistrophy
TTITLE9=Blue Monk
EXTD=YEAR: 1994
EXTT0=
EXTT1=
EXTT2=
EXTT3=
EXTT4=
EXTT5=
EXTT6=
EXTT7=
EXTT8=
EXTT9=
PLAYORDER=
